<svg width="144" height="40" fill="none" xmlns="http://www.w3.org/2000/svg"><path d="M0 7a7 7 0 017-7h130a7 7 0 017 7v26a7 7 0 01-7 7H7a7 7 0 01-7-7V7z" fill="#000"/><path fill-rule="evenodd" clip-rule="evenodd" d="M137 1H7a6 6 0 00-6 6v26a6 6 0 006 6h130a6 6 0 006-6V7a6 6 0 00-6-6zM7 0a7 7 0 00-7 7v26a7 7 0 007 7h130a7 7 0 007-7V7a7 7 0 00-7-7H7z" fill="#A6A6A6"/><path fill-rule="evenodd" clip-rule="evenodd" d="M49.898 12.457c.13-.344.187-.71.17-1.077a3.727 3.727 0 00-.04-.46h-2.91v.72H49.3a1.92 1.92 0 01-.5 1.22 2.4 2.4 0 11-1.68-4.13 2 2 0 011.64.72l.53-.53a2.539 2.539 0 00-.94-.67 3.16 3.16 0 00-3.44.65 3.19 3.19 0 000 4.46 3.001 3.001 0 002.21.9 2.902 2.902 0 002.2-.88c.253-.266.45-.58.58-.923zm2.05-3.576h2.7v-.74h-3.48v6h3.48v-.74h-2.7v-1.9h2.46v-.72h-2.46v-1.9zm5.981 5.26h-.77V8.88h-1.68v-.74h4.17v.74h-1.72v5.26zm4.66-6v6h.77v-6h-.77zm4.19 6h-.77V8.88h-1.68v-.74h4.12v.74h-1.67v5.26zm8.471-.107a3.13 3.13 0 001.01-.675 3.001 3.001 0 00.88-2.22 3.072 3.072 0 00-1.886-2.903 3 3 0 00-1.194-.227 2.93 2.93 0 00-2.2.91 3.24 3.24 0 000 4.44 3.109 3.109 0 003.39.675zm-2.074-.67a2.29 2.29 0 01-.746-.505 2.54 2.54 0 010-3.44 2.29 2.29 0 013.26 0 2.54 2.54 0 010 3.44 2.29 2.29 0 01-2.514.504zm5.053.777v-6h.93l2.92 4.67V8.14h.77v6h-.8L79 9.25v4.89h-.77zm-9.327 8.287a4.26 4.26 0 012.365-.723 4.19 4.19 0 014.27 4.25 4.261 4.261 0 11-6.635-3.526zm.886 5.762a2.58 2.58 0 001.48.345 2.46 2.46 0 002.4-2.58 2.58 2.58 0 10-3.88 2.235zm-10.206-5.762a4.26 4.26 0 012.365-.723 4.19 4.19 0 014.27 4.25 4.26 4.26 0 11-6.635-3.526zm.886 5.762a2.58 2.58 0 001.48.345 2.46 2.46 0 002.4-2.58 2.58 2.58 0 10-3.88 2.235zm-9.6-3.375v-1.8h6.08c.063.37.093.745.09 1.12a6 6 0 01-1.56 4.23 6.071 6.071 0 01-4.61 1.85 6.609 6.609 0 110-13.21 6.3 6.3 0 014.53 1.82l-1.27 1.27a4.64 4.64 0 00-3.28-1.29 4.8 4.8 0 100 9.6 4.42 4.42 0 003.34-1.32 3.77 3.77 0 001-2.27h-4.32zm43.91-2.321a4 4 0 011.4 1.921l.21.44-5.69 2.35a2.15 2.15 0 002.059 1.29 2.41 2.41 0 002.09-1.17l1.45 1a4.23 4.23 0 01-7.76-2.37 3.999 3.999 0 014-4.25 4 4 0 012.242.789zM90.5 24.919a2.34 2.34 0 00-.123.916l3.8-1.58a1.64 1.64 0 00-1.57-.91 2.34 2.34 0 00-2.107 1.574zm-2.873 5.036h-1.87v-12.5h1.87v12.5zm-5-7.3h.07v-.7h1.73v7.57c0 3.14-1.81 4.43-4 4.43a4 4 0 01-3.77-2.52l1.62-.67a2.36 2.36 0 002.15 1.51c1.4 0 2.27-.87 2.27-2.5v-.61h-.07a2.88 2.88 0 01-2.24 1 4.26 4.26 0 010-8.51 2.94 2.94 0 012.24 1zm-3.8 5.072a2.58 2.58 0 001.72.808 2.38 2.38 0 002.28-2.58 2.388 2.388 0 00-2.28-2.57 2.58 2.58 0 00-1.72 4.342zm21.63-10.272h4.48a3.889 3.889 0 110 7.76h-2.61v4.74h-1.87v-12.5zm1.87 6h2.61l.04.02a2.143 2.143 0 002.14-2.14 2.131 2.131 0 00-.627-1.513 2.127 2.127 0 00-1.513-.627h-2.65v4.26zm12.199-1.334a3.49 3.49 0 011.951-.456l.04.02c2.13 0 3.79 1.27 3.79 3.46v4.81h-1.8v-1h-.06a2.653 2.653 0 01-2.38 1.22 2.887 2.887 0 01-2.83-1.634 2.9 2.9 0 01-.28-1.116c0-1.82 1.82-2.82 3.6-2.82a4.18 4.18 0 011.95.48v-.12a1.802 1.802 0 00-2-1.61 1.783 1.783 0 00-1.71.91l-1.65-.69a3.492 3.492 0 011.379-1.454zm.261 5.334c0 .75.85 1.06 1.46 1.06l.04.02a2.257 2.257 0 002.2-2 3.32 3.32 0 00-1.7-.42c-.94 0-2 .34-2 1.34zm9.94-.08l2.14-5.42h2.08l-5.12 11.79h-1.95l1.9-4.21-3.33-7.58h2l2.22 5.42h.06zm-12.8 2.58h-1.86v-12.5h1.86v12.5z" fill="#fff"/><path d="M13.4 9.343a1.69 1.69 0 00-.396 1.182v18.682c-.03.431.114.856.397 1.183l.059.067 10.464-10.464v-.253L13.46 9.284l-.06.059z" fill="url(#app_bad_a)"/><path d="M27.387 23.481l-3.463-3.488v-.253l3.463-3.488.076.05 4.147 2.348c1.182.667 1.182 1.765 0 2.44l-4.13 2.349-.093.042z" fill="url(#app_bad_b)"/><path d="M27.488 23.431l-3.564-3.564-10.523 10.524a1.368 1.368 0 001.748.059l12.34-7.019z" fill="url(#app_bad_c)"/><path d="M27.488 16.304L15.15 9.294a1.36 1.36 0 00-1.748.05l10.523 10.524 3.564-3.564z" fill="url(#app_bad_d)"/><defs><linearGradient id="app_bad_a" x1="22.995" y1="10.331" x2="8.823" y2="24.503" gradientUnits="userSpaceOnUse"><stop stop-color="#00A0FF"/><stop offset=".01" stop-color="#00A1FF"/><stop offset=".26" stop-color="#00BEFF"/><stop offset=".51" stop-color="#00D2FF"/><stop offset=".76" stop-color="#00DFFF"/><stop offset="1" stop-color="#00E3FF"/></linearGradient><linearGradient id="app_bad_b" x1="33.156" y1="19.866" x2="12.725" y2="19.866" gradientUnits="userSpaceOnUse"><stop stop-color="#FFE000"/><stop offset=".41" stop-color="#FFBD00"/><stop offset=".78" stop-color="orange"/><stop offset="1" stop-color="#FF9C00"/></linearGradient><linearGradient id="app_bad_c" x1="25.554" y1="21.81" x2="6.332" y2="41.024" gradientUnits="userSpaceOnUse"><stop stop-color="#FF3A44"/><stop offset="1" stop-color="#C31162"/></linearGradient><linearGradient id="app_bad_d" x1="10.749" y1="3.128" x2="19.33" y2="11.709" gradientUnits="userSpaceOnUse"><stop stop-color="#32A071"/><stop offset=".07" stop-color="#2DA771"/><stop offset=".48" stop-color="#15CF74"/><stop offset=".8" stop-color="#06E775"/><stop offset="1" stop-color="#00F076"/></linearGradient></defs></svg>