<svg width="144" height="40" fill="none" xmlns="http://www.w3.org/2000/svg"><path d="M0 7a7 7 0 017-7h130a7 7 0 017 7v26a7 7 0 01-7 7H7a7 7 0 01-7-7V7z" fill="#000"/><path fill-rule="evenodd" clip-rule="evenodd" d="M137 1H7a6 6 0 00-6 6v26a6 6 0 006 6h130a6 6 0 006-6V7a6 6 0 00-6-6zM7 0a7 7 0 00-7 7v26a7 7 0 007 7h130a7 7 0 007-7V7a7 7 0 00-7-7H7z" fill="#A6A6A6"/><path fill-rule="evenodd" clip-rule="evenodd" d="M69.118 8h.889v6.26h-.889V8zm-20.125.468a2.64 2.64 0 00-1.144-.172h-2.156v5.967h2.156c1.777 0 2.807-1.096 2.807-3.002a2.639 2.639 0 00-1.663-2.793zm-1.248 4.95H46.62V9.14h1.125a1.88 1.88 0 011.968 2.134 1.878 1.878 0 01-1.968 2.146zm4.055-2.29c-.094.282-.128.58-.1.876a2.133 2.133 0 104.247 0 2.132 2.132 0 00-4.147-.876zm2.026-.67c.769 0 1.207.57 1.207 1.546 0 .98-.438 1.55-1.208 1.55-.772 0-1.207-.566-1.207-1.55 0-.976.435-1.546 1.207-1.546zm7.77 3.799h-.922l-.93-3.317h-.071l-.927 3.317h-.913l-1.241-4.503h.901l.807 3.436h.066l.926-3.436h.852l.926 3.436h.07l.803-3.436h.889l-1.236 4.503zm3.132-4.502h-.856v4.503h.889v-2.634a1.033 1.033 0 011.075-1.141c.657 0 .972.36.972 1.083v2.692h.888v-2.915a1.465 1.465 0 00-1.558-1.675 1.348 1.348 0 00-1.344.803h-.066v-.716zm6.615 1.373c-.094.282-.128.58-.1.876a2.135 2.135 0 104.248 0 2.134 2.134 0 00-4.148-.876zm2.025-.67c.77 0 1.208.57 1.208 1.546 0 .98-.438 1.55-1.208 1.55-.772 0-1.207-.566-1.207-1.55 0-.976.435-1.546 1.207-1.546zm3.056 2.526c0-.81.603-1.277 1.675-1.344l1.22-.07v-.389c0-.475-.315-.744-.922-.744-.497 0-.84.182-.939.5h-.86c.09-.773.818-1.269 1.84-1.269 1.128 0 1.765.562 1.765 1.513v3.077h-.855v-.633h-.07a1.515 1.515 0 01-1.353.707 1.361 1.361 0 01-1.501-1.348zm2.894-.384v-.377l-1.1.07c-.62.042-.9.253-.9.65 0 .405.35.641.834.641a1.062 1.062 0 001.166-.984zm3.918-2.917c-1.137 0-1.869.902-1.869 2.324 0 1.427.724 2.328 1.87 2.328a1.562 1.562 0 001.413-.786h.07v.712h.852V8h-.888v2.473h-.067a1.484 1.484 0 00-1.38-.79zm.252 3.854c-.753 0-1.203-.575-1.203-1.53 0-.947.455-1.525 1.203-1.525.745 0 1.212.59 1.212 1.53 0 .942-.463 1.525-1.212 1.525zm5.766-1.533a2.132 2.132 0 114.247 0 2.135 2.135 0 11-4.247 0zm3.333 0c0-.976-.438-1.546-1.208-1.546-.772 0-1.207.57-1.207 1.546 0 .984.435 1.55 1.207 1.55.77 0 1.208-.57 1.208-1.55zm2.959-2.249h-.856v4.503h.89v-2.634a1.033 1.033 0 011.074-1.141c.657 0 .972.36.972 1.083v2.692h.889v-2.915a1.464 1.464 0 00-1.559-1.675 1.348 1.348 0 00-1.344.803h-.066v-.716zm7.993-1.13v1.142h.976v.748h-.976v2.316c0 .471.194.678.637.678.113 0 .226-.007.339-.02v.74c-.16.028-.322.043-.484.045-.988 0-1.382-.348-1.382-1.216v-2.543h-.714v-.748h.714V8.625h.89zM106.604 8h-.881v6.26h.888v-2.63a1.062 1.062 0 01.302-.834 1.048 1.048 0 01.832-.307c.628 0 .963.364.963 1.084v2.688h.89v-2.907a1.48 1.48 0 00-.913-1.573 1.482 1.482 0 00-.638-.106 1.386 1.386 0 00-1.373.806h-.07V8zm8.177 5.042a1.828 1.828 0 01-1.951 1.303 2.044 2.044 0 01-2.08-2.324 2.068 2.068 0 011.212-2.172c.272-.122.566-.183.864-.181 1.253 0 2.009.856 2.009 2.27v.31h-3.18v.05a1.19 1.19 0 001.199 1.29 1.08 1.08 0 001.071-.546h.856zm-3.126-1.451h2.274a1.073 1.073 0 00-.296-.829 1.078 1.078 0 00-.812-.338 1.154 1.154 0 00-1.081.718 1.15 1.15 0 00-.085.449zM25.182 9a4.872 4.872 0 01-1.115 3.49 4.1 4.1 0 01-3.236 1.531 4.636 4.636 0 011.143-3.361A4.957 4.957 0 0125.182 9zm2.26 9.2a4.948 4.948 0 00-.645 2.38 4.781 4.781 0 002.92 4.398 10.963 10.963 0 01-1.519 3.093c-.894 1.338-1.832 2.645-3.32 2.669-.708.016-1.186-.187-1.684-.4-.52-.22-1.06-.451-1.907-.451-.898 0-1.464.238-2.01.467-.47.199-.927.39-1.57.417-1.417.053-2.5-1.428-3.427-2.753-1.853-2.707-3.296-7.628-1.362-10.976a5.316 5.316 0 014.473-2.728c.804-.017 1.576.293 2.252.565.517.208.979.393 1.357.393.332 0 .78-.178 1.304-.385.824-.327 1.832-.727 2.859-.62a5.066 5.066 0 013.99 2.158 4.948 4.948 0 00-1.711 1.773zM84.7 28.63c-1.635 0-2.83-.808-2.969-2.04H79.83c.12 2.247 1.98 3.668 4.734 3.668 2.943 0 4.793-1.455 4.793-3.779 0-1.816-1.058-2.84-3.606-3.442l-1.368-.336c-1.6-.395-2.255-.912-2.255-1.79 0-1.101 1.024-1.858 2.521-1.858 1.498 0 2.522.748 2.634 1.987h1.876c-.06-2.142-1.86-3.614-4.483-3.614-2.651 0-4.519 1.472-4.519 3.614 0 1.73 1.059 2.797 3.34 3.348l1.609.387c1.609.396 2.289.973 2.289 1.937 0 1.11-1.127 1.919-2.694 1.919zm-37.108-1.932h4.733l1.136 3.357H55.5l-4.483-12.418h-2.083L44.45 30.055h2.005l1.137-3.357zm4.242-1.549h-3.752l1.85-5.447h.052l1.85 5.447zm9.571 4.998c2.273 0 3.779-1.807 3.779-4.62 0-2.807-1.515-4.623-3.813-4.623a3.212 3.212 0 00-2.883 1.6h-.034V21h-1.799v12.049h1.859v-4.485h.043a3.07 3.07 0 002.848 1.584zm-.524-7.659c1.445 0 2.392 1.205 2.392 3.038 0 1.85-.947 3.046-2.392 3.046-1.42 0-2.375-1.222-2.375-3.046 0-1.808.955-3.038 2.375-3.038zm14.264 3.038c0 2.814-1.505 4.621-3.778 4.621a3.068 3.068 0 01-2.848-1.584h-.043v4.485h-1.859v-12.05h1.799v1.507h.034a3.21 3.21 0 012.883-1.601c2.298 0 3.813 1.816 3.813 4.622zm-1.91 0c0-1.833-.947-3.038-2.392-3.038-1.42 0-2.375 1.23-2.375 3.038 0 1.824.955 3.046 2.375 3.046 1.445 0 2.392-1.196 2.392-3.046zm20.132-6.663v2.143h1.722v1.471h-1.722v4.992c0 .775.345 1.136 1.102 1.136.204-.003.408-.018.611-.043v1.463a5.03 5.03 0 01-1.032.086c-1.833 0-2.548-.688-2.548-2.444v-5.19h-1.316v-1.471H91.5v-2.143h1.867zm7.014 2.028c-2.616 0-4.294 1.79-4.294 4.638 0 2.857 1.661 4.639 4.294 4.639 2.634 0 4.295-1.782 4.295-4.639 0-2.848-1.67-4.638-4.295-4.638zm0 1.53c1.506 0 2.401 1.154 2.401 3.108 0 1.962-.895 3.107-2.401 3.107-1.506 0-2.4-1.145-2.4-3.107 0-1.945.894-3.107 2.4-3.107zM106.21 21h1.772v1.54h.043a2.158 2.158 0 012.178-1.635c.214 0 .428.022.637.07v1.738a2.6 2.6 0 00-.835-.113 1.874 1.874 0 00-1.937 2.083v5.37h-1.858V21zm9.299 9.169c2.048 0 3.648-1.128 3.898-2.771h-1.764a2.05 2.05 0 01-2.091 1.273 2.354 2.354 0 01-2.313-1.58 2.354 2.354 0 01-.123-.985v-.112h6.395v-.637c0-2.745-1.575-4.465-4.08-4.465-2.547 0-4.191 1.841-4.191 4.681 0 2.831 1.635 4.596 4.269 4.596zm2.142-5.474h-4.526a2.282 2.282 0 01.674-1.629 2.289 2.289 0 011.632-.669 2.173 2.173 0 011.612.664 2.176 2.176 0 01.608 1.634z" fill="#fff"/></svg>